<svg className="svg-hero" viewBox="0 0 1920 1080" fill="none" xmlns="http://www.w3.org/2000/svg">
<g id="icompliment background" clip-path="url(#clip0)">
<g id="heart3" filter="url(#filter0_f)">
<path d="M999 392.907C999 392.907 1055.73 334.568 1099.45 335.002C1161.37 335.618 1223.89 408.7 1220.9 454.322C1217.9 499.944 1151.93 521 1151.93 521L999 392.907Z" fill="#5517DA"/>
</g>
<g id="heart2" filter="url(#filter1_f)">
<path d="M869 652.069L964.752 545L1062 613.454C1062 613.454 984.202 667.866 978.217 729.299C972.233 790.732 869 652.069 869 652.069Z" fill="#5517DA"/>
</g>
<g id="heart1" filter="url(#filter2_f)">
<path d="M701.799 457.853C685.907 399.186 740.569 345.531 792.906 342.083C836.055 339.24 887 410.492 887 410.492L773.49 521C773.49 521 712.409 497.019 701.799 457.853Z" fill="#5517DA"/>
</g>
</g>
<defs>
<filter id="filter0_f" x="624" y="-40" width="972" height="936" filterUnits="userSpaceOnUse" color-interpolation-filters="sRGB">
<feFlood flood-opacity="0" result="BackgroundImageFix"/>
<feBlend mode="normal" in="SourceGraphic" in2="BackgroundImageFix" result="shape"/>
<feGaussianBlur stdDeviation="187.5" result="effect1_foregroundBlur"/>
</filter>
<filter id="filter1_f" x="494" y="170" width="943" height="950" filterUnits="userSpaceOnUse" color-interpolation-filters="sRGB">
<feFlood flood-opacity="0" result="BackgroundImageFix"/>
<feBlend mode="normal" in="SourceGraphic" in2="BackgroundImageFix" result="shape"/>
<feGaussianBlur stdDeviation="187.5" result="effect1_foregroundBlur"/>
</filter>
<filter id="filter2_f" x="324" y="-33" width="938" height="929" filterUnits="userSpaceOnUse" color-interpolation-filters="sRGB">
<feFlood flood-opacity="0" result="BackgroundImageFix"/>
<feBlend mode="normal" in="SourceGraphic" in2="BackgroundImageFix" result="shape"/>
<feGaussianBlur stdDeviation="187.5" result="effect1_foregroundBlur"/>
</filter>
<clipPath id="clip0">
<rect width="1920" height="1080" fill="white"/>
</clipPath>
</defs>
</svg>
